<svg id="Capa_1" enable-background="new 0 0 511.998 511.998" height="512" viewBox="0 0 511.998 511.998" width="512" xmlns="http://www.w3.org/2000/svg"><g><g><path d="m501.998 353.542h-48.552c15.951-19.231 17.361-47.672 1.811-68.515l-108.852-145.898c-3.14-4.39-9.813-5.338-14.048-1.995l-56.358 42.637v-58.074c0-5.522-4.477-10-10-10h-70.969v-65.919c0-5.522-4.477-10-10-10h-91.472c-5.523 0-10 4.478-10 10v307.764h-73.558c-5.523 0-10 4.478-10 10v54.282c0 5.522 4.477 10 10 10h53.266v14.198c0 18.856 15.341 34.197 34.197 34.197s34.197-15.341 34.197-34.197v-14.198h80.358c5.523 0 10-4.478 10-10s-4.477-10-10-10h-192.018v-34.282h471.998v34.282h-191.996c-5.523 0-10 4.478-10 10s4.477 10 10 10h80.335v14.198c0 18.856 15.341 34.197 34.197 34.197s34.197-15.341 34.197-34.197v-14.198h53.266c5.523 0 10-4.478 10-10v-54.282c.001-5.522-4.476-10-9.999-10zm-390.337 88.48c0 7.828-6.369 14.197-14.197 14.197s-14.197-6.369-14.197-14.197v-14.197h28.395v14.197zm188.567-255.503 103.786 136.173c3.299 4.328 9.681 5.196 14.015 1.892 4.393-3.348 5.24-9.622 1.892-14.015l-103.744-136.116 20.218-15.295 102.832 137.829c11.592 15.538 8.445 37.693-7.016 49.388-15.474 11.704-38.129 8.467-49.715-7.063l-102.542-137.455zm66.238 164.751c.579.776 1.177 1.532 1.791 2.272h-92.257v-123.539zm-262.908-219.501h71.472v155.162h-71.472zm71.472-75.991v55.99h-71.472v-55.99zm-71.472 251.153h71.472v46.611h-71.472zm91.472 46.611v-221.846h60.969v221.846zm233.702 88.48c0 7.828-6.369 14.197-14.197 14.197s-14.197-6.369-14.197-14.197v-14.197h28.395v14.197z"/><path d="m226.043 153.216c-5.523 0-10 4.478-10 10v18.48c0 5.522 4.477 10 10 10s10-4.478 10-10v-18.48c0-5.523-4.477-10-10-10z"/><path d="m226.043 292.337c-5.523 0-10 4.478-10 10v18.48c0 5.522 4.477 10 10 10s10-4.478 10-10v-18.48c0-5.523-4.477-10-10-10z"/><path d="m265.229 413.999c-3.489-8.381-15.867-7.91-18.713.691-2.832 8.559 6.705 16.265 14.478 11.795 4.31-2.479 6.114-7.905 4.235-12.486z"/></g></g></svg>