<svg width="60" height="45" viewBox="0 0 60 45" fill="none" xmlns="http://www.w3.org/2000/svg">
<circle cx="37.6072" cy="22.3929" r="17.3929" fill="#F8F8F8" stroke="#5F45EA" stroke-width="10"/>
<path d="M10.7356 5C10.7356 2.23858 12.9742 0 15.7356 0H38.5499V10H15.7356C12.9742 10 10.7356 7.76142 10.7356 5Z" fill="#5F45EA"/>
<path d="M0 17.0214C0 14.26 2.23858 12.0214 5 12.0214H24V22.0214H5C2.23858 22.0214 0 19.7828 0 17.0214Z" fill="#5F45EA"/>
<path d="M6 40C6 37.2386 8.23858 35 11 35H18V45H11C8.23858 45 6 42.7614 6 40Z" fill="#5F45EA"/>
<path d="M32.4059 30.1222C33.8566 32.4718 33.128 35.5526 30.7784 37.0034L18.0866 44.8399L12.8329 36.3312L25.5246 28.4947C27.8743 27.0439 30.9551 27.7725 32.4059 30.1222Z" fill="#5F45EA"/>
</svg>
