<svg height="496pt" viewBox="0 0 496 496" width="496pt" xmlns="http://www.w3.org/2000/svg"><path d="m8 488h480v-480h-480zm132.519531-347.480469 107.480469 107.480469 107.480469-107.480469-107.480469 107.480469 107.480469 107.480469-107.480469-107.480469-107.480469 107.480469 107.480469-107.480469zm0 0" fill="#ff6243"/><g fill="#231f20"><path d="m134.863281 361.136719c3.125 3.121093 8.1875 3.121093 11.3125 0l101.824219-101.824219 101.824219 101.824219c3.140625 3.03125 8.128906 2.988281 11.214843-.097657 3.085938-3.085937 3.128907-8.074218.097657-11.214843l-101.824219-101.824219 101.824219-101.824219c2.078125-2.007812 2.914062-4.984375 2.179687-7.78125-.730468-2.796875-2.914062-4.980469-5.710937-5.710937-2.796875-.734375-5.773438.101562-7.78125 2.179687l-101.824219 101.824219-101.824219-101.824219c-2.007812-2.078125-4.984375-2.914062-7.78125-2.179687-2.796875.730468-4.980469 2.914062-5.710937 5.710937-.734375 2.796875.101562 5.773438 2.179687 7.78125l101.824219 101.824219-101.824219 101.824219c-3.121093 3.125-3.121093 8.1875 0 11.3125zm0 0"/><path d="m496 488v-480c0-4.417969-3.582031-8-8-8h-480c-4.417969 0-8 3.582031-8 8v480c0 4.417969 3.582031 8 8 8h480c4.417969 0 8-3.582031 8-8zm-16-8h-464v-464h464zm0 0"/></g></svg>